REM DIRINDEX 1\2\6,1\2\7,1\2\8,1\3\9,1\3\10,1\3\11,1\4\12,1\4\13,1\4\14,1\5\15,1\5\16,1\5\17,1\5\18
REM DIRNAME folder01,folder02,folder03,folder04,folder05,folder06,folder07,folder08,folder09,folder10,folder11,folder12,folder13,folder14,folder15,folder16,folder17,folder18
TITLE ""
FILE "" MP3
  TRACK 01 AUDIO
    TITLE "16:cjc019_4637"
    INDEX 01 00:00:00
  TRACK 02 AUDIO
    TITLE "0:"
    INDEX 01 00:01:05
  TRACK 03 AUDIO
    TITLE "18:cjc019_4638"
    INDEX 01 00:01:52
  TRACK 04 AUDIO
    TITLE "0:"
    INDEX 01 00:08:28
  TRACK 05 AUDIO
    TITLE "17:cjc019_4639"
    INDEX 01 00:09:00
  TRACK 06 AUDIO
    TITLE "0:"
    INDEX 01 00:10:14
  TRACK 07 AUDIO
    TITLE "16:cjc019_4640"
    INDEX 01 00:11:64
  TRACK 08 AUDIO
    TITLE "0:"
    INDEX 01 00:12:67
  TRACK 09 AUDIO
    TITLE "18:cjc019_4641"
    INDEX 01 00:13:49
  TRACK 10 AUDIO
    TITLE "0:"
    INDEX 01 00:18:46
  TRACK 11 AUDIO
    TITLE "17:cjc019_4642"
    INDEX 01 00:19:24
  TRACK 12 AUDIO
    TITLE "0:"
    INDEX 01 00:20:32
  TRACK 13 AUDIO
    TITLE "16:cjc019_4643"
    INDEX 01 00:22:13
  TRACK 14 AUDIO
    TITLE "0:"
    INDEX 01 00:23:22
  TRACK 15 AUDIO
    TITLE "18:cjc019_4644"
    INDEX 01 00:24:00
  TRACK 16 AUDIO
    TITLE "0:"
    INDEX 01 00:29:64
  TRACK 17 AUDIO
    TITLE "17:cjc019_4645"
    INDEX 01 00:30:42
  TRACK 18 AUDIO
    TITLE "0:"
    INDEX 01 00:31:47
  TRACK 19 AUDIO
    TITLE "16:cjc019_4646"
    INDEX 01 00:33:24
  TRACK 20 AUDIO
    TITLE "0:"
    INDEX 01 00:34:42
  TRACK 21 AUDIO
    TITLE "18:cjc019_4647"
    INDEX 01 00:35:21
  TRACK 22 AUDIO
    TITLE "0:"
    INDEX 01 00:40:28
  TRACK 23 AUDIO
    TITLE "17:cjc019_4648"
    INDEX 01 00:41:04
  TRACK 24 AUDIO
    TITLE "0:"
    INDEX 01 00:42:19
  TRACK 25 AUDIO
    TITLE "16:cjc019_4649"
    INDEX 01 00:43:72
  TRACK 26 AUDIO
    TITLE "0:"
    INDEX 01 00:45:10
  TRACK 27 AUDIO
    TITLE "18:cjc019_4650"
    INDEX 01 00:45:67
  TRACK 28 AUDIO
    TITLE "0:"
    INDEX 01 00:47:52
  TRACK 29 AUDIO
    TITLE "17:cjc019_4651"
    INDEX 01 00:48:36
  TRACK 30 AUDIO
    TITLE "0:"
    INDEX 01 00:49:49
  TRACK 31 AUDIO
    TITLE "16:cjc019_4652"
    INDEX 01 00:51:32
  TRACK 32 AUDIO
    TITLE "0:"
    INDEX 01 00:52:43
  TRACK 33 AUDIO
    TITLE "18:cjc019_4653"
    INDEX 01 00:53:19
  TRACK 34 AUDIO
    TITLE "0:"
    INDEX 01 00:58:67
  TRACK 35 AUDIO
    TITLE "17:cjc019_4654"
    INDEX 01 00:59:45
  TRACK 36 AUDIO
    TITLE "0:"
    INDEX 01 01:00:59
  TRACK 37 AUDIO
    TITLE "16:cjc019_4655"
    INDEX 01 01:02:46
  TRACK 38 AUDIO
    TITLE "0:"
    INDEX 01 01:03:49
  TRACK 39 AUDIO
    TITLE "18:cjc019_4656"
    INDEX 01 01:04:27
  TRACK 40 AUDIO
    TITLE "0:"
    INDEX 01 01:06:65
  TRACK 41 AUDIO
    TITLE "17:cjc019_4657"
    INDEX 01 01:07:41
  TRACK 42 AUDIO
    TITLE "0:"
    INDEX 01 01:08:50
  TRACK 43 AUDIO
    TITLE "16:cjc019_4658"
    INDEX 01 01:10:31
  TRACK 44 AUDIO
    TITLE "0:"
    INDEX 01 01:11:37
  TRACK 45 AUDIO
    TITLE "18:cjc019_4659"
    INDEX 01 01:12:17
  TRACK 46 AUDIO
    TITLE "0:"
    INDEX 01 01:14:35
  TRACK 47 AUDIO
    TITLE "17:cjc019_4660"
    INDEX 01 01:15:07
  TRACK 48 AUDIO
    TITLE "0:"
    INDEX 01 01:16:16
  TRACK 49 AUDIO
    TITLE "16:cjc019_4661"
    INDEX 01 01:17:65
  TRACK 50 AUDIO
    TITLE "0:"
    INDEX 01 01:18:74
  TRACK 51 AUDIO
    TITLE "18:cjc019_4662"
    INDEX 01 01:19:48
  TRACK 52 AUDIO
    TITLE "0:"
    INDEX 01 01:23:16
  TRACK 53 AUDIO
    TITLE "17:cjc019_4663"
    INDEX 01 01:23:67
  TRACK 54 AUDIO
    TITLE "0:"
    INDEX 01 01:25:04
  TRACK 55 AUDIO
    TITLE "16:cjc019_4664"
    INDEX 01 01:26:58
  TRACK 56 AUDIO
    TITLE "0:"
    INDEX 01 01:28:04
  TRACK 57 AUDIO
    TITLE "18:cjc019_4665"
    INDEX 01 01:28:55
  TRACK 58 AUDIO
    TITLE "0:"
    INDEX 01 01:30:22
  TRACK 59 AUDIO
    TITLE "17:cjc019_4666"
    INDEX 01 01:30:73
  TRACK 60 AUDIO
    TITLE "0:"
    INDEX 01 01:32:25
  TRACK 61 AUDIO
    TITLE "16:cjc019_4667"
    INDEX 01 01:34:03
  TRACK 62 AUDIO
    TITLE "0:"
    INDEX 01 01:35:37
  TRACK 63 AUDIO
    TITLE "18:cjc019_4668"
    INDEX 01 01:36:13
  TRACK 64 AUDIO
    TITLE "0:"
    INDEX 01 01:39:55
  TRACK 65 AUDIO
    TITLE "17:cjc019_4669"
    INDEX 01 01:40:27
  TRACK 66 AUDIO
    TITLE "0:"
    INDEX 01 01:41:67
  TRACK 67 AUDIO
    TITLE "16:cjc019_4670"
    INDEX 01 01:43:47
  TRACK 68 AUDIO
    TITLE "0:"
    INDEX 01 01:44:58
  TRACK 69 AUDIO
    TITLE "18:cjc019_4671"
    INDEX 01 01:45:42
  TRACK 70 AUDIO
    TITLE "0:"
    INDEX 01 01:48:73
  TRACK 71 AUDIO
    TITLE "17:cjc019_4672"
    INDEX 01 01:49:49
  TRACK 72 AUDIO
    TITLE "0:"
    INDEX 01 01:50:58
  TRACK 73 AUDIO
    TITLE "16:cjc019_4673"
    INDEX 01 01:52:44
  TRACK 74 AUDIO
    TITLE "0:"
    INDEX 01 01:53:59
  TRACK 75 AUDIO
    TITLE "18:cjc019_4674"
    INDEX 01 01:54:35
  TRACK 76 AUDIO
    TITLE "0:"
    INDEX 01 01:56:16
  TRACK 77 AUDIO
    TITLE "17:cjc019_4675"
    INDEX 01 01:56:69
  TRACK 78 AUDIO
    TITLE "0:"
    INDEX 01 01:58:13
  TRACK 79 AUDIO
    TITLE "16:cjc019_4676"
    INDEX 01 01:59:67
  TRACK 80 AUDIO
    TITLE "0:"
    INDEX 01 02:01:11
  TRACK 81 AUDIO
    TITLE "18:cjc019_4677"
    INDEX 01 02:01:70
  TRACK 82 AUDIO
    TITLE "0:"
    INDEX 01 02:04:15
  TRACK 83 AUDIO
    TITLE "17:cjc019_4678"
    INDEX 01 02:04:66
  TRACK 84 AUDIO
    TITLE "0:"
    INDEX 01 02:06:10
  TRACK 85 AUDIO
    TITLE "16:cjc019_4679"
    INDEX 01 02:07:73
  TRACK 86 AUDIO
    TITLE "0:"
    INDEX 01 02:09:01
  TRACK 87 AUDIO
    TITLE "18:cjc019_4680"
    INDEX 01 02:09:56
  TRACK 88 AUDIO
    TITLE "0:"
    INDEX 01 02:14:08
  TRACK 89 AUDIO
    TITLE "17:cjc019_4681"
    INDEX 01 02:14:53
  TRACK 90 AUDIO
    TITLE "0:"
    INDEX 01 02:15:58
  TRACK 91 AUDIO
    TITLE "16:cjc019_4682"
    INDEX 01 02:17:44
  TRACK 92 AUDIO
    TITLE "0:"
    INDEX 01 02:18:53
  TRACK 93 AUDIO
    TITLE "18:cjc019_4683"
    INDEX 01 02:19:29
  TRACK 94 AUDIO
    TITLE "0:"
    INDEX 01 02:22:02
  TRACK 95 AUDIO
    TITLE "17:cjc019_4684"
    INDEX 01 02:22:53
  TRACK 96 AUDIO
    TITLE "0:"
    INDEX 01 02:23:64
  TRACK 97 AUDIO
    TITLE "16:cjc019_4685"
    INDEX 01 02:25:45
  TRACK 98 AUDIO
    TITLE "0:"
    INDEX 01 02:26:62
  TRACK 99 AUDIO
    TITLE "18:cjc019_4686"
    INDEX 01 02:27:36
  TRACK 100 AUDIO
    TITLE "0:"
    INDEX 01 02:29:02
  TRACK 101 AUDIO
    TITLE "17:cjc019_4687"
    INDEX 01 02:29:55
  TRACK 102 AUDIO
    TITLE "0:"
    INDEX 01 02:31:01
  TRACK 103 AUDIO
    TITLE "16:cjc019_4688"
    INDEX 01 02:32:53
  TRACK 104 AUDIO
    TITLE "0:"
    INDEX 01 02:33:58
  TRACK 105 AUDIO
    TITLE "18:cjc019_4689"
    INDEX 01 02:34:38
  TRACK 106 AUDIO
    TITLE "0:"
    INDEX 01 02:38:10
  TRACK 107 AUDIO
    TITLE "17:cjc019_4690"
    INDEX 01 02:38:63
  TRACK 108 AUDIO
    TITLE "0:"
    INDEX 01 02:40:01
